<svg width="252" height="925" viewBox="0 0 252 925" fill="none" xmlns="http://www.w3.org/2000/svg">
<circle cx="126" cy="125.626" r="125.302" fill="#3CB5AE"/>
<circle cx="173.567" cy="154.502" r="34.5353" fill="#3E555C"/>
<circle cx="75.3072" cy="147.277" r="34.5353" fill="#3E555C"/>
<circle cx="74.4053" cy="147.277" r="12.5112" fill="#D9B488"/>
<path d="M71.0478 133.297C69.0073 116.05 82.4801 100.889 99.8469 100.889H139.088C156.455 100.889 169.928 116.05 167.887 133.297L164.575 161.292C163.59 169.621 159.047 177.115 152.118 181.841L135.81 192.966C125.952 199.69 112.983 199.69 103.125 192.966L86.817 181.841C79.8884 177.115 75.3454 169.621 74.3599 161.292L71.0478 133.297Z" fill="#D9B488"/>
<circle cx="83.2232" cy="98.867" r="34.5353" fill="#3E555C"/>
<circle cx="133.685" cy="87.4541" r="40.3153" fill="#3E555C"/>
<circle cx="176.693" cy="117.966" r="34.5353" fill="#3E555C"/>
<g style="mix-blend-mode:multiply">
<path d="M125.458 155.487H113.477L118.413 161.162H120.853L125.458 155.487Z" fill="#D9B488"/>
</g>
<g style="mix-blend-mode:multiply">
<path d="M103.062 171.057C103.062 172.53 104.256 173.723 105.729 173.723C107.202 173.723 108.396 172.53 108.396 171.057C108.396 169.584 107.202 168.39 105.729 168.39C104.256 168.39 103.062 169.584 103.062 171.057ZM131.478 171.057C131.478 172.53 132.672 173.723 134.145 173.723C135.617 173.723 136.811 172.53 136.811 171.057C136.811 169.584 135.617 168.39 134.145 168.39C132.672 168.39 131.478 169.584 131.478 171.057ZM105.584 171.535L105.779 171.594L106.069 170.637L105.874 170.578L105.584 171.535ZM105.779 171.594C115.077 174.411 125.005 174.39 134.292 171.535L133.998 170.579C124.901 173.376 115.177 173.396 106.069 170.637L105.779 171.594Z" fill="#F59C80"/>
</g>
<circle cx="126" cy="799.539" r="125.302" fill="#3CB5AE"/>
<path d="M75.2027 790.573C74.2151 780.016 82.5211 770.897 93.1244 770.897H154.629C165.232 770.897 173.538 780.016 172.55 790.573L167.966 839.58C167.619 843.288 166.131 846.797 163.706 849.624L147.332 868.711C143.912 872.697 138.922 874.991 133.67 874.991H114.616C109.445 874.991 104.523 872.767 101.106 868.886L84.1874 849.671C81.6739 846.817 80.1292 843.239 79.775 839.453L75.2027 790.573Z" fill="#FFE5CD"/>
<circle cx="81.7544" cy="823.379" r="15.1269" fill="#FFE5CD"/>
<circle cx="165.998" cy="823.379" r="15.1269" fill="#FFE5CD"/>
<path d="M68.1822 800.001L81.133 824.499L78.3335 801.325L83.1884 783.229L89.4828 775.725L98.8123 780.66L113.201 779.698L161.971 772.195L156.454 787.422L165.722 803.531V821.377L180.508 794.704L189.776 777.491L175.874 758.513L167.488 767.781L173.667 753.217L161.971 736.445L122.69 730.045L84.9538 734.68L83.1884 724.087L68.1822 730.045L62.2239 749.686L71.4924 767.781L64.6513 779.698L68.1822 800.001Z" fill="#F59C80"/>
<g style="mix-blend-mode:multiply">
<path d="M119.157 815.372H127.273L129.262 837.957L123.215 840.313L117.168 837.957L119.157 815.372Z" fill="#FFE5CD"/>
</g>
<path d="M117.097 851.701L117.274 851.824C120.904 854.328 125.716 854.279 129.293 851.701V851.701" stroke="#633E3E" stroke-width="3" stroke-linecap="round"/>
<path d="M60.4698 328.106C59.6887 327.325 58.4224 327.325 57.6413 328.106L44.9134 340.834C44.1324 341.615 44.1324 342.881 44.9134 343.662C45.6945 344.443 46.9608 344.443 47.7418 343.662L59.0555 332.348L70.3693 343.662C71.1503 344.443 72.4166 344.443 73.1977 343.662C73.9787 342.881 73.9787 341.615 73.1977 340.834L60.4698 328.106ZM57.0555 595.645C57.0555 596.75 57.951 597.645 59.0555 597.645C60.1601 597.645 61.0555 596.75 61.0555 595.645H57.0555ZM57.0555 333.434C57.0555 334.538 57.951 335.434 59.0555 335.434C60.1601 335.434 61.0555 334.538 61.0555 333.434H57.0555ZM61.0555 341.261C61.0555 340.156 60.1601 339.261 59.0555 339.261C57.951 339.261 57.0555 340.156 57.0555 341.261H61.0555ZM57.0555 349.088C57.0555 350.193 57.951 351.088 59.0555 351.088C60.1601 351.088 61.0555 350.193 61.0555 349.088H57.0555ZM61.0555 356.915C61.0555 355.811 60.1601 354.915 59.0555 354.915C57.951 354.915 57.0555 355.811 57.0555 356.915H61.0555ZM57.0555 364.742C57.0555 365.847 57.951 366.742 59.0555 366.742C60.1601 366.742 61.0555 365.847 61.0555 364.742H57.0555ZM61.0555 372.57C61.0555 371.465 60.1601 370.57 59.0555 370.57C57.951 370.57 57.0555 371.465 57.0555 372.57H61.0555ZM57.0555 380.397C57.0555 381.501 57.951 382.397 59.0555 382.397C60.1601 382.397 61.0555 381.501 61.0555 380.397H57.0555ZM61.0555 388.224C61.0555 387.119 60.1601 386.224 59.0555 386.224C57.951 386.224 57.0555 387.119 57.0555 388.224H61.0555ZM57.0555 396.051C57.0555 397.156 57.951 398.051 59.0555 398.051C60.1601 398.051 61.0555 397.156 61.0555 396.051H57.0555ZM61.0555 403.878C61.0555 402.774 60.1601 401.878 59.0555 401.878C57.951 401.878 57.0555 402.774 57.0555 403.878H61.0555ZM57.0555 411.706C57.0555 412.81 57.951 413.706 59.0555 413.706C60.1601 413.706 61.0555 412.81 61.0555 411.706H57.0555ZM61.0555 419.533C61.0555 418.428 60.1601 417.533 59.0555 417.533C57.951 417.533 57.0555 418.428 57.0555 419.533H61.0555ZM57.0555 427.36C57.0555 428.465 57.951 429.36 59.0555 429.36C60.1601 429.36 61.0555 428.465 61.0555 427.36H57.0555ZM61.0555 435.187C61.0555 434.083 60.1601 433.187 59.0555 433.187C57.951 433.187 57.0555 434.083 57.0555 435.187H61.0555ZM57.0555 443.015C57.0555 444.119 57.951 445.015 59.0555 445.015C60.1601 445.015 61.0555 444.119 61.0555 443.015H57.0555ZM61.0555 450.842C61.0555 449.737 60.1601 448.842 59.0555 448.842C57.951 448.842 57.0555 449.737 57.0555 450.842H61.0555ZM57.0555 458.669C57.0555 459.774 57.951 460.669 59.0555 460.669C60.1601 460.669 61.0555 459.774 61.0555 458.669H57.0555ZM61.0555 466.496C61.0555 465.392 60.1601 464.496 59.0555 464.496C57.951 464.496 57.0555 465.392 57.0555 466.496H61.0555ZM57.0555 474.323C57.0555 475.428 57.951 476.323 59.0555 476.323C60.1601 476.323 61.0555 475.428 61.0555 474.323H57.0555ZM61.0555 482.151C61.0555 481.046 60.1601 480.151 59.0555 480.151C57.951 480.151 57.0555 481.046 57.0555 482.151H61.0555ZM57.0555 489.978C57.0555 491.082 57.951 491.978 59.0555 491.978C60.1601 491.978 61.0555 491.082 61.0555 489.978H57.0555ZM61.0555 497.805C61.0555 496.7 60.1601 495.805 59.0555 495.805C57.951 495.805 57.0555 496.7 57.0555 497.805H61.0555ZM57.0555 505.632C57.0555 506.737 57.951 507.632 59.0555 507.632C60.1601 507.632 61.0555 506.737 61.0555 505.632H57.0555ZM61.0555 513.459C61.0555 512.355 60.1601 511.459 59.0555 511.459C57.951 511.459 57.0555 512.355 57.0555 513.459H61.0555ZM57.0555 521.287C57.0555 522.391 57.951 523.287 59.0555 523.287C60.1601 523.287 61.0555 522.391 61.0555 521.287H57.0555ZM61.0555 529.114C61.0555 528.009 60.1601 527.114 59.0555 527.114C57.951 527.114 57.0555 528.009 57.0555 529.114H61.0555ZM57.0555 536.941C57.0555 538.046 57.951 538.941 59.0555 538.941C60.1601 538.941 61.0555 538.046 61.0555 536.941H57.0555ZM61.0555 544.768C61.0555 543.664 60.1601 542.768 59.0555 542.768C57.951 542.768 57.0555 543.664 57.0555 544.768H61.0555ZM57.0555 552.595C57.0555 553.7 57.951 554.595 59.0555 554.595C60.1601 554.595 61.0555 553.7 61.0555 552.595H57.0555ZM61.0555 560.423C61.0555 559.318 60.1601 558.423 59.0555 558.423C57.951 558.423 57.0555 559.318 57.0555 560.423H61.0555ZM57.0555 568.25C57.0555 569.354 57.951 570.25 59.0555 570.25C60.1601 570.25 61.0555 569.354 61.0555 568.25H57.0555ZM61.0555 576.077C61.0555 574.973 60.1601 574.077 59.0555 574.077C57.951 574.077 57.0555 574.973 57.0555 576.077H61.0555ZM57.0555 583.904C57.0555 585.009 57.951 585.904 59.0555 585.904C60.1601 585.904 61.0555 585.009 61.0555 583.904H57.0555ZM61.0555 591.731C61.0555 590.627 60.1601 589.731 59.0555 589.731C57.951 589.731 57.0555 590.627 57.0555 591.731H61.0555ZM57.0555 329.52V333.434H61.0555V329.52H57.0555ZM57.0555 341.261V349.088H61.0555V341.261H57.0555ZM57.0555 356.915V364.742H61.0555V356.915H57.0555ZM57.0555 372.57V380.397H61.0555V372.57H57.0555ZM57.0555 388.224V396.051H61.0555V388.224H57.0555ZM57.0555 403.878V411.706H61.0555V403.878H57.0555ZM57.0555 419.533V427.36H61.0555V419.533H57.0555ZM57.0555 435.187V443.015H61.0555V435.187H57.0555ZM57.0555 450.842V458.669H61.0555V450.842H57.0555ZM57.0555 466.496V474.323H61.0555V466.496H57.0555ZM57.0555 482.151V489.978H61.0555V482.151H57.0555ZM57.0555 497.805V505.632H61.0555V497.805H57.0555ZM57.0555 513.459V521.287H61.0555V513.459H57.0555ZM57.0555 529.114V536.941H61.0555V529.114H57.0555ZM57.0555 544.768V552.595H61.0555V544.768H57.0555ZM57.0555 560.423V568.25H61.0555V560.423H57.0555ZM57.0555 576.077V583.904H61.0555V576.077H57.0555ZM57.0555 591.731V595.645H61.0555V591.731H57.0555Z" fill="white"/>
<path d="M191.53 597.059C192.312 597.84 193.578 597.84 194.359 597.059L207.087 584.331C207.868 583.55 207.868 582.284 207.087 581.503C206.306 580.722 205.039 580.722 204.258 581.503L192.945 592.817L181.631 581.503C180.85 580.722 179.584 580.722 178.803 581.503C178.022 582.284 178.022 583.55 178.803 584.331L191.53 597.059ZM194.945 329.52C194.945 328.415 194.049 327.52 192.945 327.52C191.84 327.52 190.945 328.415 190.945 329.52L194.945 329.52ZM194.945 591.732C194.945 590.627 194.049 589.732 192.945 589.732C191.84 589.732 190.945 590.627 190.945 591.732L194.945 591.732ZM190.945 583.904C190.945 585.009 191.84 585.904 192.945 585.904C194.049 585.904 194.945 585.009 194.945 583.904L190.945 583.904ZM194.945 576.077C194.945 574.973 194.049 574.077 192.945 574.077C191.84 574.077 190.945 574.973 190.945 576.077L194.945 576.077ZM190.945 568.25C190.945 569.355 191.84 570.25 192.945 570.25C194.049 570.25 194.945 569.355 194.945 568.25L190.945 568.25ZM194.945 560.423C194.945 559.318 194.049 558.423 192.945 558.423C191.84 558.423 190.945 559.318 190.945 560.423L194.945 560.423ZM190.945 552.596C190.945 553.7 191.84 554.596 192.945 554.596C194.049 554.596 194.945 553.7 194.945 552.596L190.945 552.596ZM194.945 544.768C194.945 543.664 194.049 542.768 192.945 542.768C191.84 542.768 190.945 543.664 190.945 544.768L194.945 544.768ZM190.945 536.941C190.945 538.046 191.84 538.941 192.945 538.941C194.049 538.941 194.945 538.046 194.945 536.941L190.945 536.941ZM194.945 529.114C194.945 528.009 194.049 527.114 192.945 527.114C191.84 527.114 190.945 528.009 190.945 529.114L194.945 529.114ZM190.945 521.287C190.945 522.391 191.84 523.287 192.945 523.287C194.049 523.287 194.945 522.391 194.945 521.287L190.945 521.287ZM194.945 513.459C194.945 512.355 194.049 511.459 192.945 511.459C191.84 511.459 190.945 512.355 190.945 513.459L194.945 513.459ZM190.945 505.632C190.945 506.737 191.84 507.632 192.945 507.632C194.049 507.632 194.945 506.737 194.945 505.632L190.945 505.632ZM194.945 497.805C194.945 496.7 194.049 495.805 192.945 495.805C191.84 495.805 190.945 496.7 190.945 497.805L194.945 497.805ZM190.945 489.978C190.945 491.082 191.84 491.978 192.945 491.978C194.049 491.978 194.945 491.082 194.945 489.978L190.945 489.978ZM194.945 482.151C194.945 481.046 194.049 480.151 192.945 480.151C191.84 480.151 190.945 481.046 190.945 482.151L194.945 482.151ZM190.945 474.323C190.945 475.428 191.84 476.323 192.945 476.323C194.049 476.323 194.945 475.428 194.945 474.323L190.945 474.323ZM194.945 466.496C194.945 465.392 194.049 464.496 192.945 464.496C191.84 464.496 190.945 465.392 190.945 466.496L194.945 466.496ZM190.945 458.669C190.945 459.774 191.84 460.669 192.945 460.669C194.049 460.669 194.945 459.774 194.945 458.669L190.945 458.669ZM194.945 450.842C194.945 449.737 194.049 448.842 192.945 448.842C191.84 448.842 190.945 449.737 190.945 450.842L194.945 450.842ZM190.945 443.015C190.945 444.119 191.84 445.015 192.945 445.015C194.049 445.015 194.945 444.119 194.945 443.015L190.945 443.015ZM194.945 435.187C194.945 434.083 194.049 433.187 192.945 433.187C191.84 433.187 190.945 434.083 190.945 435.187L194.945 435.187ZM190.945 427.36C190.945 428.465 191.84 429.36 192.945 429.36C194.049 429.36 194.945 428.465 194.945 427.36L190.945 427.36ZM194.945 419.533C194.945 418.428 194.049 417.533 192.945 417.533C191.84 417.533 190.945 418.428 190.945 419.533L194.945 419.533ZM190.945 411.706C190.945 412.81 191.84 413.706 192.945 413.706C194.049 413.706 194.945 412.81 194.945 411.706L190.945 411.706ZM194.945 403.879C194.945 402.774 194.049 401.879 192.945 401.879C191.84 401.879 190.945 402.774 190.945 403.879L194.945 403.879ZM190.945 396.051C190.945 397.156 191.84 398.051 192.945 398.051C194.049 398.051 194.945 397.156 194.945 396.051L190.945 396.051ZM194.945 388.224C194.945 387.12 194.049 386.224 192.945 386.224C191.84 386.224 190.945 387.12 190.945 388.224L194.945 388.224ZM190.945 380.397C190.945 381.501 191.84 382.397 192.945 382.397C194.049 382.397 194.945 381.501 194.945 380.397L190.945 380.397ZM194.945 372.57C194.945 371.465 194.049 370.57 192.945 370.57C191.84 370.57 190.945 371.465 190.945 372.57L194.945 372.57ZM190.945 364.743C190.945 365.847 191.84 366.743 192.945 366.743C194.049 366.743 194.945 365.847 194.945 364.743L190.945 364.743ZM194.945 356.915C194.945 355.811 194.049 354.915 192.945 354.915C191.84 354.915 190.945 355.811 190.945 356.915L194.945 356.915ZM190.945 349.088C190.945 350.193 191.84 351.088 192.945 351.088C194.049 351.088 194.945 350.193 194.945 349.088L190.945 349.088ZM194.945 341.261C194.945 340.156 194.049 339.261 192.945 339.261C191.84 339.261 190.945 340.156 190.945 341.261L194.945 341.261ZM190.945 333.434C190.945 334.538 191.84 335.434 192.945 335.434C194.049 335.434 194.945 334.538 194.945 333.434L190.945 333.434ZM194.945 595.645L194.945 591.732L190.945 591.732L190.945 595.645L194.945 595.645ZM194.945 583.904L194.945 576.077L190.945 576.077L190.945 583.904L194.945 583.904ZM194.945 568.25L194.945 560.423L190.945 560.423L190.945 568.25L194.945 568.25ZM194.945 552.596L194.945 544.768L190.945 544.768L190.945 552.596L194.945 552.596ZM194.945 536.941L194.945 529.114L190.945 529.114L190.945 536.941L194.945 536.941ZM194.945 521.287L194.945 513.459L190.945 513.459L190.945 521.287L194.945 521.287ZM194.945 505.632L194.945 497.805L190.945 497.805L190.945 505.632L194.945 505.632ZM194.945 489.978L194.945 482.151L190.945 482.151L190.945 489.978L194.945 489.978ZM194.945 474.323L194.945 466.496L190.945 466.496L190.945 474.323L194.945 474.323ZM194.945 458.669L194.945 450.842L190.945 450.842L190.945 458.669L194.945 458.669ZM194.945 443.015L194.945 435.187L190.945 435.187L190.945 443.015L194.945 443.015ZM194.945 427.36L194.945 419.533L190.945 419.533L190.945 427.36L194.945 427.36ZM194.945 411.706L194.945 403.879L190.945 403.879L190.945 411.706L194.945 411.706ZM194.945 396.051L194.945 388.224L190.945 388.224L190.945 396.051L194.945 396.051ZM194.945 380.397L194.945 372.57L190.945 372.57L190.945 380.397L194.945 380.397ZM194.945 364.743L194.945 356.915L190.945 356.915L190.945 364.743L194.945 364.743ZM194.945 349.088L194.945 341.261L190.945 341.261L190.945 349.088L194.945 349.088ZM194.945 333.434L194.945 329.52L190.945 329.52L190.945 333.434L194.945 333.434Z" fill="white"/>
<circle cx="192.945" cy="462.583" r="46.0706" fill="white"/>
<g style="mix-blend-mode:multiply" opacity="0.5">
<path d="M198.404 459.074C197.649 462.094 192.948 460.56 191.487 460.146L192.826 454.837C194.337 455.275 199.183 455.909 198.404 459.074ZM190.829 462.873L189.368 468.742C191.17 469.205 196.748 470.982 197.576 467.671C198.453 464.213 192.632 463.312 190.829 462.873ZM216.574 468.474C213.31 481.527 200.109 489.466 187.054 486.203C173.999 482.939 166.066 469.741 169.322 456.688C172.586 443.635 185.787 435.706 198.842 438.959C211.873 442.223 219.813 455.421 216.574 468.474ZM198.331 452.962L199.427 448.579L196.748 447.97L195.676 452.183C194.97 452.012 194.263 451.842 193.533 451.696L194.604 447.385L191.95 446.752L190.854 451.111C190.269 450.965 189.684 450.843 189.149 450.697L185.471 449.772L184.74 452.621C184.74 452.621 186.737 453.084 186.689 453.108C187.785 453.376 187.98 454.058 187.931 454.667L184.935 466.672C184.813 467.013 184.423 467.451 183.717 467.33C183.742 467.354 181.769 466.843 181.769 466.843L180.453 469.887L183.912 470.763C184.57 470.934 185.203 471.104 185.836 471.25L184.716 475.682L187.395 476.364L188.491 471.957C189.222 472.151 189.928 472.322 190.61 472.517L189.514 476.876L192.193 477.558L193.314 473.125C197.82 473.978 201.278 473.637 202.691 469.521C203.909 466.234 202.691 464.286 200.255 463.044C202.009 462.581 203.324 461.485 203.689 459.099C204.177 455.86 201.692 454.131 198.331 452.962Z" fill="#FF9110"/>
</g>
<circle cx="59.0556" cy="462.583" r="46.0706" fill="white"/>
<circle cx="59.0555" cy="462.583" r="24.353" fill="#46CA6B"/>
<path d="M50.4423 467.751H53.8876C53.8876 469.611 56.2476 471.196 59.0555 471.196C61.8634 471.196 64.2235 469.611 64.2235 467.751C64.2235 465.856 62.4319 465.167 58.6421 464.254C54.9901 463.341 50.4423 462.204 50.4423 457.415C50.4423 454.331 52.9746 451.713 56.4715 450.834V447.079H61.6395V450.834C65.1365 451.713 67.6688 454.331 67.6688 457.415H64.2235C64.2235 455.554 61.8634 453.969 59.0555 453.969C56.2476 453.969 53.8876 455.554 53.8876 457.415C53.8876 459.31 55.6791 459.999 59.4689 460.912C63.121 461.825 67.6688 462.962 67.6688 467.751C67.6688 470.834 65.1365 473.453 61.6395 474.331V478.086H56.4715V474.331C52.9746 473.453 50.4423 470.834 50.4423 467.751Z" fill="white"/>
</svg>
